<?xml version="1.0" encoding="utf-8"?>
<!-- Generator: Adobe Illustrator 14.0.0, SVG Export Plug-In . SVG Version: 6.00 Build 43363)  -->
<!DOCTYPE svg PUBLIC "-//W3C//DTD SVG 1.1//EN" "http://www.w3.org/Graphics/SVG/1.1/DTD/svg11.dtd">
<svg version="1.1" id="레이어_1" xmlns="http://www.w3.org/2000/svg" xmlns:xlink="http://www.w3.org/1999/xlink" x="0px"
	 y="0px" width="965.031px" height="271px" viewBox="0 0 965.031 271" enable-background="new 0 0 965.031 271"
	 xml:space="preserve">
<g>
	<g>
		<g>
			<path fill="#1861AE" d="M85.791,57.245c-45.841,0-83.006,37.164-83.006,83.007c0,45.843,37.165,83.007,83.006,83.007
				c45.843,0,83.009-37.163,83.009-83.007V57.245H85.791z M117.581,100.944c11.314,0,20.486,7.434,20.486,16.602
				s-9.17,16.601-20.486,16.601c-11.315,0-20.486-7.433-20.486-16.601C97.098,108.378,106.267,100.944,117.581,100.944z
				 M54.003,100.944c11.313,0,20.487,7.434,20.487,16.602s-9.174,16.601-20.487,16.601c-11.313,0-20.487-7.433-20.487-16.601
				S42.689,100.944,54.003,100.944z M85.791,203.343c-32.231,0-58.658-24.847-61.178-56.431h0.031h122.297h0.028
				C144.452,178.498,118.025,203.343,85.791,203.343z"/>
		</g>
	</g>
</g>
<g>
	<g>
		<path fill="#1861AE" d="M213.816,154.515c19.421-7.213,33.712-17.062,42.31-30.796l-37.871,3.469l-2.907-13.734l46.74-2.913
			c1.528-4.714,2.499-9.985,2.917-15.535H221.3V82.103h59.793c0.55,22.337-4.85,40.23-15.255,54.104
			c-10.545,14.009-25.247,23.855-43.417,30.516L213.816,154.515z M302.04,73.64h14.979V195.02H302.04V73.64z"/>
		<path fill="#1861AE" d="M454.635,133.846v12.344H338.392v-12.344h78.936c1.104-5.829,1.941-12.21,2.772-18.592l-64.224,4.165
			l-3.199-12.903l68.535-3.328c0.274-4.024,0.413-8.043,0.551-11.932h-65.476v-12.76h80.874
			c-0.135,20.668-1.665,37.595-4.854,55.351L454.635,133.846L454.635,133.846z M438.552,199.043h-81.571v-35.234h14.986v22.611
			h66.584V199.043z"/>
		<path fill="#1861AE" d="M479.198,92.089c6.239-6.104,14.844-9.707,24.27-9.707c9.438,0,17.898,3.603,24.142,9.707
			c6.238,6.106,10.127,14.562,10.127,24.556c0,9.99-3.889,18.588-10.127,24.692c-6.244,6.103-14.705,9.571-24.142,9.571
			c-9.426,0-18.03-3.469-24.27-9.571c-6.241-6.107-9.985-14.703-9.985-24.692C469.212,106.657,472.956,98.196,479.198,92.089z
			 M503.467,137.593c10.54,0,19.154-8.188,19.154-20.951c0-12.762-8.613-20.946-19.154-20.946c-10.955,0-19.137,8.186-19.137,20.946
			C484.33,129.405,492.511,137.593,503.467,137.593z M567.559,73.64v39.257h20.533v12.763h-20.533v69.359H552.58V73.64H567.559z"/>
		<path fill="#1861AE" d="M608.216,92.089c6.241-6.104,14.842-9.707,24.275-9.707c9.425,0,17.893,3.603,24.136,9.707
			c6.232,6.106,10.121,14.562,10.121,24.556c0,9.99-3.889,18.588-10.121,24.692c-6.243,6.103-14.711,9.571-24.136,9.571
			c-9.435,0-18.034-3.469-24.275-9.571c-6.248-6.107-9.987-14.703-9.987-24.692C598.227,106.657,601.968,98.196,608.216,92.089z
			 M632.491,137.593c10.543,0,19.141-8.188,19.141-20.951c0-12.762-8.599-20.946-19.141-20.946c-10.965,0-19.15,8.186-19.15,20.946
			C613.341,129.405,621.527,137.593,632.491,137.593z M684.928,73.64h14.979V195.02h-14.979V73.64z"/>
	</g>
	<g>
		<path fill="#EA5514" d="M737.333,80.717h58.265v12.761h-43.279v32.603c17.201,0,38.148-1.667,55.766-5.135l1.661,12.488
			c-21.089,4.293-47.441,5.961-72.413,5.546L737.333,80.717L737.333,80.717z M800.871,157.286c0,7.768,4.992,15.125,12.204,21.227
			c7.352,5.966,16.927,10.541,25.946,12.348l-7.916,11.792c-8.876-2.222-17.062-6.246-23.716-11.24
			c-6.662-4.852-11.932-10.406-14.71-15.952c-2.907,5.552-8.187,11.101-14.846,15.952c-6.657,4.994-14.845,9.019-23.574,11.24
			l-7.913-11.792c8.886-1.807,18.455-6.382,25.803-12.348c7.212-6.102,12.345-13.457,12.345-21.227v-7.071h16.374v7.071H800.871z
			 M850.254,116.091h-19.562v39.117h-14.979V74.89h14.979v28.442h19.562V116.091z"/>
		<path fill="#EA5514" d="M924.481,81.132c-1.262,36.069-22.482,57.709-57.857,68.668l-7.628-11.098
			c12.482-3.328,23.309-8.739,32.322-16.231c1.941-1.523,3.749-3.188,5.276-4.992l-31.216,2.5l-2.91-12.623l42.166-2.222
			c1.521-3.468,2.78-7.077,3.467-11.101h-41.057V81.135h57.438L924.481,81.132L924.481,81.132z M889.936,201.262v-48.55h72.128
			v48.55H889.936z M947.084,165.341h-42.168v23.303h42.168V165.341z M947.084,74.895h14.979v71.848h-14.979v-30.927h-23.31v-13.043
			h23.31V74.895z"/>
	</g>
</g>
</svg>
